<svg xmlns="http://www.w3.org/2000/svg" width="53.104" height="15.9" viewBox="0 0 53.104 15.9">
  <g id="Group_2250" data-name="Group 2250" transform="translate(-2141.533 -5048)">
    <g id="icons8-money-bag" transform="translate(2178.737 5048)">
      <path id="Path_2663" data-name="Path 2663" d="M21.9,24.95c0,3.533-3.578,3.533-7.95,3.533S6,28.483,6,24.95,9.578,17,13.95,17,21.9,21.417,21.9,24.95Z" transform="translate(-6 -12.583)" fill="#ffc653"/>
      <path id="Path_2664" data-name="Path 2664" d="M22.239,7.707c-.839.928-.442-1.943-2.208,0-.839.928-.442-1.943-2.208,0-.751.839-.53-1.369-1.723-.486l1.281,4.638H21.8L23.123,7A2.466,2.466,0,0,0,22.239,7.707Z" transform="translate(-11.639 -7)" fill="#ffc653"/>
      <path id="Path_2665" data-name="Path 2665" d="M21.871,27.335a.55.55,0,0,0-.177-.486,1.9,1.9,0,0,0-.618-.353c-.265-.088-.53-.221-.751-.309a1.588,1.588,0,0,1-.53-.353,1.961,1.961,0,0,1-.353-.486,1.475,1.475,0,0,1-.132-.663,1.433,1.433,0,0,1,.4-1.06,1.823,1.823,0,0,1,1.1-.486V22.3h.618v.839a1.586,1.586,0,0,1,1.06.574,1.809,1.809,0,0,1,.4,1.237h-1.1a1.121,1.121,0,0,0-.177-.707.594.594,0,0,0-.53-.221.55.55,0,0,0-.486.177.6.6,0,0,0-.177.486.664.664,0,0,0,.177.486,1.9,1.9,0,0,0,.618.353,4.032,4.032,0,0,1,.751.353,1.384,1.384,0,0,1,.486.353,1.824,1.824,0,0,1,.309.486,1.4,1.4,0,0,1,.088.618,1.433,1.433,0,0,1-.4,1.06,1.836,1.836,0,0,1-1.148.486v.8h-.618v-.751a1.917,1.917,0,0,1-1.237-.574A1.743,1.743,0,0,1,19,27.07h1.1a1.124,1.124,0,0,0,.221.707.741.741,0,0,0,.618.265.7.7,0,0,0,.53-.177A.537.537,0,0,0,21.871,27.335Z" transform="translate(-13.258 -15.542)" fill="#a6372b"/>
      <path id="Path_2666" data-name="Path 2666" d="M13.216,27.172a.43.43,0,0,1-.442-.353,9.321,9.321,0,0,1-.088-3.136,13.114,13.114,0,0,1,2.032-5.7c.044-.044.044-.088.088-.133a1.538,1.538,0,0,1,.486-.574.746.746,0,0,1,.663-.088h.088a9.137,9.137,0,0,0,.972.177,5.6,5.6,0,0,0,2.738-.309.447.447,0,1,1,.309.839,6.286,6.286,0,0,1-3.18.353,5.692,5.692,0,0,1-1.06-.221h-.044c-.044.088-.133.177-.177.265a.61.61,0,0,1-.132.177,12.443,12.443,0,0,0-1.9,5.3,8.646,8.646,0,0,0,.088,2.827.447.447,0,0,1-.353.53C13.26,27.172,13.26,27.172,13.216,27.172Z" transform="translate(-9.682 -12.597)" fill="#a6372b"/>
      <path id="Path_2667" data-name="Path 2667" d="M10.442,22.731A.417.417,0,0,1,10,22.289c0-1.5,1.811-4.858,3.887-5.3a.45.45,0,0,1,.177.883c-1.59.309-3.18,3.224-3.18,4.417A.417.417,0,0,1,10.442,22.731Z" transform="translate(-8.233 -12.573)" fill="#a6372b"/>
    </g>
    <g id="icons8-money-bag-2" data-name="icons8-money-bag" transform="translate(2160.135 5048)">
      <path id="Path_2663-2" data-name="Path 2663" d="M21.9,24.95c0,3.533-3.578,3.533-7.95,3.533S6,28.483,6,24.95,9.578,17,13.95,17,21.9,21.417,21.9,24.95Z" transform="translate(-6 -12.583)" fill="#ffc653"/>
      <path id="Path_2664-2" data-name="Path 2664" d="M22.239,7.707c-.839.928-.442-1.943-2.208,0-.839.928-.442-1.943-2.208,0-.751.839-.53-1.369-1.723-.486l1.281,4.638H21.8L23.123,7A2.466,2.466,0,0,0,22.239,7.707Z" transform="translate(-11.639 -7)" fill="#ffc653"/>
      <path id="Path_2665-2" data-name="Path 2665" d="M21.871,27.335a.55.55,0,0,0-.177-.486,1.9,1.9,0,0,0-.618-.353c-.265-.088-.53-.221-.751-.309a1.588,1.588,0,0,1-.53-.353,1.961,1.961,0,0,1-.353-.486,1.475,1.475,0,0,1-.132-.663,1.433,1.433,0,0,1,.4-1.06,1.823,1.823,0,0,1,1.1-.486V22.3h.618v.839a1.586,1.586,0,0,1,1.06.574,1.809,1.809,0,0,1,.4,1.237h-1.1a1.121,1.121,0,0,0-.177-.707.594.594,0,0,0-.53-.221.55.55,0,0,0-.486.177.6.6,0,0,0-.177.486.664.664,0,0,0,.177.486,1.9,1.9,0,0,0,.618.353,4.032,4.032,0,0,1,.751.353,1.384,1.384,0,0,1,.486.353,1.824,1.824,0,0,1,.309.486,1.4,1.4,0,0,1,.088.618,1.433,1.433,0,0,1-.4,1.06,1.836,1.836,0,0,1-1.148.486v.8h-.618v-.751a1.917,1.917,0,0,1-1.237-.574A1.743,1.743,0,0,1,19,27.07h1.1a1.124,1.124,0,0,0,.221.707.741.741,0,0,0,.618.265.7.7,0,0,0,.53-.177A.537.537,0,0,0,21.871,27.335Z" transform="translate(-13.258 -15.542)" fill="#a6372b"/>
      <path id="Path_2666-2" data-name="Path 2666" d="M13.216,27.172a.43.43,0,0,1-.442-.353,9.321,9.321,0,0,1-.088-3.136,13.114,13.114,0,0,1,2.032-5.7c.044-.044.044-.088.088-.133a1.538,1.538,0,0,1,.486-.574.746.746,0,0,1,.663-.088h.088a9.137,9.137,0,0,0,.972.177,5.6,5.6,0,0,0,2.738-.309.447.447,0,1,1,.309.839,6.286,6.286,0,0,1-3.18.353,5.692,5.692,0,0,1-1.06-.221h-.044c-.044.088-.133.177-.177.265a.61.61,0,0,1-.132.177,12.443,12.443,0,0,0-1.9,5.3,8.646,8.646,0,0,0,.088,2.827.447.447,0,0,1-.353.53C13.26,27.172,13.26,27.172,13.216,27.172Z" transform="translate(-9.682 -12.597)" fill="#a6372b"/>
      <path id="Path_2667-2" data-name="Path 2667" d="M10.442,22.731A.417.417,0,0,1,10,22.289c0-1.5,1.811-4.858,3.887-5.3a.45.45,0,0,1,.177.883c-1.59.309-3.18,3.224-3.18,4.417A.417.417,0,0,1,10.442,22.731Z" transform="translate(-8.233 -12.573)" fill="#a6372b"/>
    </g>
    <g id="icons8-money-bag-3" data-name="icons8-money-bag" transform="translate(2141.533 5048)">
      <path id="Path_2663-3" data-name="Path 2663" d="M21.9,24.95c0,3.533-3.578,3.533-7.95,3.533S6,28.483,6,24.95,9.578,17,13.95,17,21.9,21.417,21.9,24.95Z" transform="translate(-6 -12.583)" fill="#ffc653"/>
      <path id="Path_2664-3" data-name="Path 2664" d="M22.239,7.707c-.839.928-.442-1.943-2.208,0-.839.928-.442-1.943-2.208,0-.751.839-.53-1.369-1.723-.486l1.281,4.638H21.8L23.123,7A2.466,2.466,0,0,0,22.239,7.707Z" transform="translate(-11.639 -7)" fill="#ffc653"/>
      <path id="Path_2665-3" data-name="Path 2665" d="M21.871,27.335a.55.55,0,0,0-.177-.486,1.9,1.9,0,0,0-.618-.353c-.265-.088-.53-.221-.751-.309a1.588,1.588,0,0,1-.53-.353,1.961,1.961,0,0,1-.353-.486,1.475,1.475,0,0,1-.132-.663,1.433,1.433,0,0,1,.4-1.06,1.823,1.823,0,0,1,1.1-.486V22.3h.618v.839a1.586,1.586,0,0,1,1.06.574,1.809,1.809,0,0,1,.4,1.237h-1.1a1.121,1.121,0,0,0-.177-.707.594.594,0,0,0-.53-.221.55.55,0,0,0-.486.177.6.6,0,0,0-.177.486.664.664,0,0,0,.177.486,1.9,1.9,0,0,0,.618.353,4.032,4.032,0,0,1,.751.353,1.384,1.384,0,0,1,.486.353,1.824,1.824,0,0,1,.309.486,1.4,1.4,0,0,1,.088.618,1.433,1.433,0,0,1-.4,1.06,1.836,1.836,0,0,1-1.148.486v.8h-.618v-.751a1.917,1.917,0,0,1-1.237-.574A1.743,1.743,0,0,1,19,27.07h1.1a1.124,1.124,0,0,0,.221.707.741.741,0,0,0,.618.265.7.7,0,0,0,.53-.177A.537.537,0,0,0,21.871,27.335Z" transform="translate(-13.258 -15.542)" fill="#a6372b"/>
      <path id="Path_2666-3" data-name="Path 2666" d="M13.216,27.172a.43.43,0,0,1-.442-.353,9.321,9.321,0,0,1-.088-3.136,13.114,13.114,0,0,1,2.032-5.7c.044-.044.044-.088.088-.133a1.538,1.538,0,0,1,.486-.574.746.746,0,0,1,.663-.088h.088a9.137,9.137,0,0,0,.972.177,5.6,5.6,0,0,0,2.738-.309.447.447,0,1,1,.309.839,6.286,6.286,0,0,1-3.18.353,5.692,5.692,0,0,1-1.06-.221h-.044c-.044.088-.133.177-.177.265a.61.61,0,0,1-.132.177,12.443,12.443,0,0,0-1.9,5.3,8.646,8.646,0,0,0,.088,2.827.447.447,0,0,1-.353.53C13.26,27.172,13.26,27.172,13.216,27.172Z" transform="translate(-9.682 -12.597)" fill="#a6372b"/>
      <path id="Path_2667-3" data-name="Path 2667" d="M10.442,22.731A.417.417,0,0,1,10,22.289c0-1.5,1.811-4.858,3.887-5.3a.45.45,0,0,1,.177.883c-1.59.309-3.18,3.224-3.18,4.417A.417.417,0,0,1,10.442,22.731Z" transform="translate(-8.233 -12.573)" fill="#a6372b"/>
    </g>
  </g>
</svg>
