<svg xmlns="http://www.w3.org/2000/svg" width="11.553" height="15.442" viewBox="0 0 11.553 15.442">
  <g id="icons8-gas" transform="translate(-9 -3.9)">
    <path id="Path_2714" data-name="Path 2714" d="M19.013,8.175c0,.116-.385,2.465-1.54,3.427a6.911,6.911,0,0,0-2.7-7.7s-.655,3.658-1.925,5.045A4.311,4.311,0,0,0,11.888,6.4C11.234,9.253,9,11.717,9,13.566a5.776,5.776,0,1,0,11.553,0A9.619,9.619,0,0,0,19.013,8.175Z" fill="#ffa82a"/>
    <path id="Path_2715" data-name="Path 2715" d="M22.851,28.814a1.925,1.925,0,1,1-3.851,0C19,27.735,20.925,24,20.925,24S22.851,27.735,22.851,28.814Z" transform="translate(-6.149 -12.36)" fill="#ffe953"/>
  </g>
</svg>
