<svg xmlns="http://www.w3.org/2000/svg" width="24.105" height="15.9" viewBox="0 0 24.105 15.9">
  <g id="icons8-in-doubt" transform="translate(-1 -3)">
    <path id="Path_2668" data-name="Path 2668" d="M14.646,25.719a1.593,1.593,0,0,1-.241-.018,1.539,1.539,0,0,1-1.282-1.759L14.01,18.3a1.539,1.539,0,0,1,3.04.477l-.886,5.642A1.539,1.539,0,0,1,14.646,25.719Z" transform="translate(-5.897 -6.82)" fill="#2196f3"/>
    <path id="Path_2669" data-name="Path 2669" d="M13.065,27.841l.4-2.564-3.04-.477-.137.876L7.322,24.026l-.55,1.532,3.775,3.215A1.539,1.539,0,0,0,13.065,27.841Z" transform="translate(-2.812 -10.242)" fill="#ffb74d"/>
    <path id="Path_2670" data-name="Path 2670" d="M30.388,25.719a1.539,1.539,0,0,1-1.518-1.3l-.885-5.642a1.539,1.539,0,1,1,3.04-.477l.885,5.642A1.539,1.539,0,0,1,30.629,25.7,1.593,1.593,0,0,1,30.388,25.719Z" transform="translate(-13.136 -6.82)" fill="#2196f3"/>
    <path id="Path_2671" data-name="Path 2671" d="M29.376,27.841l-.4-2.564,3.04-.477.137.876,2.968-1.649.55,1.532-3.775,3.215A1.539,1.539,0,0,1,29.376,27.841Z" transform="translate(-13.627 -10.242)" fill="#ffb74d"/>
    <path id="Path_2672" data-name="Path 2672" d="M22.642,17.588h-3.59c-1.133,0-2.051.571-2.051,1.275v7.143h7.693V18.863C24.693,18.159,23.774,17.588,22.642,17.588Z" transform="translate(-7.794 -7.106)" fill="#2196f3"/>
    <path id="Path_2673" data-name="Path 2673" d="M39,24.745,40.026,24h1.791a.26.26,0,0,1,.261.261v.268s.88-.316,1.277-.465c.285-.107.262.23.262.23v.2a.513.513,0,0,1-.2.405l-.55.426a1.026,1.026,0,0,1-.629.215h-1.7L39,26.808Z" transform="translate(-18.511 -10.23)" fill="#ffb74d"/>
    <path id="Path_2674" data-name="Path 2674" d="M23.614,14.026v1.8a1.795,1.795,0,1,1-3.589,0v-1.8h3.589M24.64,13H19v2.821a2.82,2.82,0,1,0,5.641,0V13Z" transform="translate(-8.768 -4.871)" fill="#90caf9"/>
    <path id="Path_2675" data-name="Path 2675" d="M24.589,15H21v1.8a1.794,1.794,0,0,0,1.795,1.795h0A1.794,1.794,0,0,0,24.589,16.8Z" transform="translate(-9.743 -5.846)" fill="#ff9800"/>
    <path id="Path_2676" data-name="Path 2676" d="M21.334,13.18a3.472,3.472,0,0,0,3.334-3.59A3.472,3.472,0,0,0,21.334,6,3.472,3.472,0,0,0,18,9.59a3.472,3.472,0,0,0,3.334,3.59" transform="translate(-8.281 -1.461)" fill="#ffb74d"/>
    <path id="Path_2677" data-name="Path 2677" d="M21.187,3C19.563,3.161,18,4.417,18,7.091V8.137l.667.734V6.67l4.207-1.616L24,6.67v2.2l.667-.734V7.255c0-1.771-.09-3.086-2-3.52L22.343,3Z" transform="translate(-8.281)" fill="#424242"/>
    <path id="Path_2678" data-name="Path 2678" d="M5.616,24.745,4.59,24H2.8a.26.26,0,0,0-.261.261v.268s-.949-.327-1.257-.458A.183.183,0,0,0,1,24.246V24.5a.513.513,0,0,0,.2.405l.55.426a1.026,1.026,0,0,0,.629.215h1.7l1.539,1.263Z" transform="translate(0 -10.23)" fill="#ffb74d"/>
  </g>
</svg>
