<svg xmlns="http://www.w3.org/2000/svg" width="15.899" height="15.9" viewBox="0 0 15.899 15.9">
  <g id="icons8-rocket" transform="translate(-5.616 -5.322)">
    <path id="Path_2679" data-name="Path 2679" d="M7.258,32.245a1.763,1.763,0,0,1,2.494,2.494c-.689.689-3.429.935-3.429.935S6.569,32.933,7.258,32.245Z" transform="translate(-0.395 -14.764)" fill="#ff3d00"/>
    <path id="Path_2680" data-name="Path 2680" d="M9.462,33.986a.882.882,0,1,1,1.247,1.247c-.344.344-1.559.312-1.559.312S9.118,34.331,9.462,33.986Z" transform="translate(-1.975 -15.882)" fill="#ffeb3b"/>
    <path id="Path_2681" data-name="Path 2681" d="M18.192,7.372,9.151,16.414l3.741,3.741,9.041-9.041A8.157,8.157,0,0,0,23.1,7.921L21.384,6.2A8.156,8.156,0,0,0,18.192,7.372Z" transform="translate(-1.976 -0.491)" fill="#d1c4e9"/>
    <path id="Path_2682" data-name="Path 2682" d="M12.475,21.222l-.936-2.182L15.28,15.3l-.623,3.741ZM5.616,14.363,7.8,15.3l3.741-3.741L7.8,12.181ZM19.408,5.709l1.72,1.72c.246-1.129.387-2.107.387-2.107S20.537,5.464,19.408,5.709ZM10.916,19.663H9.669L7.175,17.169V15.922Z" fill="#7e57c2"/>
    <g id="Group_2267" data-name="Group 2267" transform="translate(10.969 9.741)">
      <path id="Path_2683" data-name="Path 2683" d="M23,15.344a.882.882,0,1,0,.882.882A.882.882,0,0,0,23,15.344Zm-2.182,2.182a.882.882,0,1,0,.882.882A.882.882,0,0,0,20.822,17.526ZM18.64,19.708a.882.882,0,1,0,.882.882A.882.882,0,0,0,18.64,19.708Z" transform="translate(-17.758 -15.344)" fill="#311b92"/>
    </g>
  </g>
</svg>
