<svg xmlns="http://www.w3.org/2000/svg" width="16.695" height="15.9" viewBox="0 0 16.695 15.9">
  <g id="icons8-smiling-face-with-heart" transform="translate(-3 -4)">
    <path id="Path_2705" data-name="Path 2705" d="M18.9,11.95A7.95,7.95,0,1,1,10.95,4,7.973,7.973,0,0,1,18.9,11.95Z" fill="#ffca28"/>
    <path id="Path_2706" data-name="Path 2706" d="M15.18,20.59A1.59,1.59,0,1,1,13.59,19,1.595,1.595,0,0,1,15.18,20.59Z" transform="translate(-5.423 -9.038)" fill="#6d4c41"/>
    <path id="Path_2707" data-name="Path 2707" d="M14.192,20.6a.6.6,0,1,1-.6-.6A.611.611,0,0,1,14.192,20.6Z" transform="translate(-6.025 -9.64)" fill="#fff"/>
    <path id="Path_2708" data-name="Path 2708" d="M29.18,20.59A1.59,1.59,0,1,1,27.59,19,1.595,1.595,0,0,1,29.18,20.59Z" transform="translate(-13.858 -9.038)" fill="#6d4c41"/>
    <path id="Path_2709" data-name="Path 2709" d="M28.192,20.6a.6.6,0,1,1-.6-.6A.611.611,0,0,1,28.192,20.6Z" transform="translate(-14.46 -9.64)" fill="#fff"/>
    <path id="Path_2710" data-name="Path 2710" d="M19.987,33.987A1.968,1.968,0,0,1,18,32h.795a1.192,1.192,0,0,0,2.385,0h.795A1.968,1.968,0,0,1,19.987,33.987Z" transform="translate(-9.038 -16.87)" fill="#b76c09"/>
    <path id="Path_2711" data-name="Path 2711" d="M34.155,5.908A1.875,1.875,0,0,0,32.287,4a1.8,1.8,0,0,0-1.669,1.073A2,2,0,0,0,28.908,4,1.884,1.884,0,0,0,27,5.908c0,2.067,3.577,4.054,3.577,4.054h0S34.155,7.975,34.155,5.908Z" transform="translate(-14.46)" fill="#f44336"/>
  </g>
</svg>
