<svg xmlns="http://www.w3.org/2000/svg" width="16.783" height="15.9" viewBox="0 0 16.783 15.9">
  <g id="Group_2251" data-name="Group 2251" transform="translate(-2357 -5065)">
    <g id="icons8-facebook-like" transform="translate(2357 5065)">
      <path id="Path_2684" data-name="Path 2684" d="M19.677,18H26.32V28.6H19.677a2.623,2.623,0,0,1-2.6-2.648v-5.3A2.623,2.623,0,0,1,19.677,18Z" transform="translate(-11.745 -12.7)" fill="#ffcc80"/>
      <path id="Path_2685" data-name="Path 2685" d="M25.853,12.625a1.325,1.325,0,0,0,1.325,1.325H28.5a1.325,1.325,0,0,0,1.325-1.325h0A1.325,1.325,0,0,0,28.5,11.3H27.178a1.325,1.325,0,0,0-1.325,1.325Zm-1.325,2.65A1.325,1.325,0,0,0,25.853,16.6H28.5a1.325,1.325,0,0,0,1.325-1.325h0A1.325,1.325,0,0,0,28.5,13.95h-2.65a1.325,1.325,0,0,0-1.325,1.325Zm-.442,2.65a1.325,1.325,0,0,0,1.325,1.325h2.65a1.325,1.325,0,0,0,1.325-1.325h0A1.325,1.325,0,0,0,28.061,16.6h-2.65a1.325,1.325,0,0,0-1.325,1.325Zm-.442,2.65A1.325,1.325,0,0,0,24.969,21.9h2.65a1.325,1.325,0,0,0,1.325-1.325h0a1.325,1.325,0,0,0-1.325-1.325h-2.65a1.325,1.325,0,0,0-1.325,1.325ZM21.668,9.342a3.736,3.736,0,0,0,.846-1.6l.32-1.305A.561.561,0,0,1,23.378,6h.3a1.5,1.5,0,0,1,1.311,1.454V8.07a7.278,7.278,0,0,1-.8,3.565l-1.16,2.1-3.619-1.884Z" transform="translate(-13.045 -6)" fill="#ffcc80"/>
      <g id="Group_2268" data-name="Group 2268" transform="translate(12.808 7.95)">
        <path id="Path_2686" data-name="Path 2686" d="M37.092,24H35.325a.442.442,0,1,0,0,.883Zm-.442,2.65H34.883a.442.442,0,0,0,0,.883Zm-.442,2.65H34.442a.442.442,0,1,0,0,.883Z" transform="translate(-34 -24)" fill="#f2a25a"/>
      </g>
      <path id="Path_2687" data-name="Path 2687" d="M10.742,28.717H6.325L5,19h5.742Z" transform="translate(-5 -13.258)" fill="#43a047"/>
      <path id="Path_2688" data-name="Path 2688" d="M11.883,34a.883.883,0,1,0,.883.883A.883.883,0,0,0,11.883,34Z" transform="translate(-8.35 -21.633)" fill="#fff"/>
    </g>
  </g>
</svg>
