<svg xmlns="http://www.w3.org/2000/svg" width="15.441" height="15.9" viewBox="0 0 15.441 15.9">
  <g id="icons8-thumbs-down" transform="translate(-6.04 -6)">
    <path id="Path_2689" data-name="Path 2689" d="M17.677,16.6H24.32V6H17.677a2.623,2.623,0,0,0-2.6,2.649v5.3A2.623,2.623,0,0,0,17.677,16.6Z" transform="translate(-5.048)" fill="#ffcc80"/>
    <path id="Path_2690" data-name="Path 2690" d="M23.852,15.275a1.325,1.325,0,0,1,1.325-1.325H26.5a1.325,1.325,0,0,1,1.325,1.325h0A1.325,1.325,0,0,1,26.5,16.6H25.177a1.325,1.325,0,0,1-1.325-1.325Zm-1.325-2.65A1.325,1.325,0,0,1,23.852,11.3H26.5a1.325,1.325,0,0,1,1.325,1.325h0A1.325,1.325,0,0,1,26.5,13.95h-2.65a1.325,1.325,0,0,1-1.325-1.325Zm-.442-2.65A1.325,1.325,0,0,1,23.411,8.65h2.65a1.325,1.325,0,0,1,1.325,1.325h0A1.325,1.325,0,0,1,26.061,11.3h-2.65a1.325,1.325,0,0,1-1.325-1.325Zm-.442-2.65A1.325,1.325,0,0,1,22.969,6h2.65a1.325,1.325,0,0,1,1.325,1.325h0A1.325,1.325,0,0,1,25.619,8.65h-2.65a1.325,1.325,0,0,1-1.325-1.325Zm-4.237,8.721,3.619-1.884,1.16,2.1a7.276,7.276,0,0,1,.8,3.565v.615a1.5,1.5,0,0,1-1.31,1.455h-.3a.561.561,0,0,1-.544-.433l-.32-1.305a3.733,3.733,0,0,0-.846-1.6Z" transform="translate(-6.347)" fill="#ffcc80"/>
    <g id="Group_2270" data-name="Group 2270" transform="translate(17.506 7.767)">
      <path id="Path_2691" data-name="Path 2691" d="M35.092,16.183H33.325a.442.442,0,0,1,0-.883Zm-.442-2.65H32.883a.442.442,0,0,1,0-.883Zm-.442-2.65H32.442a.442.442,0,1,1,0-.883Z" transform="translate(-32 -10)" fill="#f2a25a"/>
    </g>
    <path id="Path_2692" data-name="Path 2692" d="M6.04,7h4.417v9.717H6.04Z" transform="translate(0 -0.558)" fill="#f44336"/>
    <path id="Path_2693" data-name="Path 2693" d="M9.923,10a.883.883,0,1,0,.883.883A.883.883,0,0,0,9.923,10Z" transform="translate(-1.675 -2.233)" fill="#fff"/>
  </g>
</svg>
